<svg width="32" height="32" fill="none" xmlns="http://www.w3.org/2000/svg">
    <path
        d="M14.6 2.63a1.6 1.6 0 0 1 2.8 0 1.6 1.6 0 0 0 2.42.48 1.6 1.6 0 0 1 2.6 1.07 1.6 1.6 0 0 0 2.04 1.37 1.6 1.6 0 0 1 1.99 1.99 1.6 1.6 0 0 0 1.37 2.05 1.6 1.6 0 0 1 1.07 2.6 1.6 1.6 0 0 0 .48 2.4 1.6 1.6 0 0 1 0 2.81 1.6 1.6 0 0 0-.48 2.42c.8.98.2 2.47-1.07 2.6a1.6 1.6 0 0 0-1.37 2.04 1.6 1.6 0 0 1-1.99 1.99 1.6 1.6 0 0 0-2.05 1.37 1.6 1.6 0 0 1-2.6 1.07 1.6 1.6 0 0 0-2.4.48 1.6 1.6 0 0 1-2.81 0 1.6 1.6 0 0 0-2.42-.48c-.98.8-2.47.2-2.6-1.07a1.6 1.6 0 0 0-2.04-1.37 1.6 1.6 0 0 1-1.99-1.99 1.6 1.6 0 0 0-1.37-2.05 1.6 1.6 0 0 1-1.07-2.6 1.6 1.6 0 0 0-.48-2.4 1.6 1.6 0 0 1 0-2.81 1.6 1.6 0 0 0 .48-2.42 1.6 1.6 0 0 1 1.07-2.6 1.6 1.6 0 0 0 1.37-2.04 1.6 1.6 0 0 1 1.99-1.99 1.6 1.6 0 0 0 2.05-1.37 1.6 1.6 0 0 1 2.6-1.07c.77.64 1.93.4 2.4-.48Z"
        fill="#A962FF" />
    <circle cx="16" cy="16" r="8.47" fill="#121212" />
    <path
        d="M24.33 6.84c.15-.01.3 0 .45.05.15.05.29.13.41.24A1.4 1.4 0 0 1 25.35 9L13.77 24.15l-.03.03c-.24.31-.54.56-.88.73a2.35 2.35 0 0 1-2.17-.03 2.58 2.58 0 0 1-.87-.77l-.01-.01-3.64-5.05v-.01a1.36 1.36 0 0 1-.27-.98c.02-.18.07-.35.15-.5a1.16 1.16 0 0 1 .73-.62 1.09 1.09 0 0 1 .91.13c.14.09.26.2.35.35l3.56 4.94.2.28.2-.27L23.53 7.3c.1-.14.23-.24.36-.32.14-.08.3-.13.45-.15Z"
        fill="#121212" stroke="#A962FF" stroke-width=".5" />
</svg>