<svg width="32" height="32" fill="none" xmlns="http://www.w3.org/2000/svg"><path d="M15.04 2.86a1.1 1.1 0 0 1 1.92 0 2.1 2.1 0 0 0 3.18.64 1.1 1.1 0 0 1 1.78.73 2.1 2.1 0 0 0 2.69 1.8 1.1 1.1 0 0 1 1.36 1.36 2.1 2.1 0 0 0 1.8 2.7c.87.08 1.29 1.1.73 1.77a2.1 2.1 0 0 0 .64 3.18 1.1 1.1 0 0 1 0 1.92 2.1 2.1 0 0 0-.64 3.18c.56.67.14 1.7-.73 1.78a2.1 2.1 0 0 0-1.8 2.69 1.1 1.1 0 0 1-1.36 1.36 2.1 2.1 0 0 0-2.7 1.8 1.1 1.1 0 0 1-1.77.73 2.1 2.1 0 0 0-3.18.64 1.1 1.1 0 0 1-1.92 0 2.1 2.1 0 0 0-3.18-.64 1.1 1.1 0 0 1-1.78-.73 2.1 2.1 0 0 0-2.69-1.8 1.1 1.1 0 0 1-1.36-1.36 2.1 2.1 0 0 0-1.8-2.7 1.1 1.1 0 0 1-.73-1.77 2.1 2.1 0 0 0-.64-3.18 1.1 1.1 0 0 1 0-1.92 2.1 2.1 0 0 0 .64-3.18 1.1 1.1 0 0 1 .73-1.78 2.1 2.1 0 0 0 1.8-2.69 1.1 1.1 0 0 1 1.36-1.36 2.1 2.1 0 0 0 2.7-1.8 1.1 1.1 0 0 1 1.77-.73 2.1 2.1 0 0 0 3.18-.64Z" fill="#121212" stroke="#A962FF"/><circle cx="16" cy="16" r="8.47" fill="#A962FF"/><path d="M24.35 7.1a.84.84 0 0 1 .6.16l.07.06c.1.09.18.2.25.32a1.15 1.15 0 0 1-.12 1.2L13.6 23.96l-.05.07c-.22.28-.49.5-.8.66-.3.15-.63.23-.96.22h-.13c-.29-.02-.58-.11-.85-.25-.29-.16-.55-.39-.76-.67l-.03-.04-3.63-5.05v-.01l-.07-.09a1.12 1.12 0 0 1-.16-.72c.02-.14.06-.28.13-.4.06-.13.15-.24.25-.32a.9.9 0 0 1 .33-.18.84.84 0 0 1 .7.1c.1.07.2.16.28.28l3.56 4.95.4.55.4-.54L23.72 7.46c.08-.1.18-.2.29-.26.1-.06.22-.1.34-.1Z" fill="#A962FF" stroke="#121212"/></svg>